<?xml version="1.0" encoding="UTF-8"?>
<svg id="Layer_1" xmlns="http://www.w3.org/2000/svg" viewBox="0 0 335.2 299.4">
    <path
        d="M163.4,299.4c-.6-.6-1.6-1.5-2.5-2.4-43.8-43.7-87.5-87.5-131.3-131.2C11.4,147.6,1.4,125.8.1,100.2-2.2,54.7,30.6,12,75.3,2.9c33.1-6.8,62.2,1.5,87.1,24.3.4.3.7.7,1.1.9,37.8-31.8,78.5-38.1,121.1-11.4,29.2,18.3,42.5,46.7,43.3,81.7-32.7-24.2-65.5-24.9-99-2.3-8.7-6.7-18.7-11.6-29.8-14.2-44-10.5-88,19.6-93.8,64.5-3.2,24.6,3.8,46.3,21.2,64.1,19.8,20.3,40,40.1,60,60.1,1,1,2.4,1.7,3.4,2.4-9.3,9.3-17.8,17.7-26.5,26.5Z"
        fill="#b2153f" stroke-width="0" />
    <path
        d="M228.7,286.8c-3.6-3.8-7.3-7.7-11.1-11.5-25.6-25.7-51.4-51.2-77-77-31.9-32.2-17.9-85.9,25.5-97.6,20.5-5.5,39-.7,54.8,13.5,6.1,5.5,10,5.5,16.2,0,17.2-15.3,37.1-19.8,58.8-12.3,21.4,7.4,34.3,23.1,38.2,45.4,3.2,18.4-1.5,35.3-14.6,48.7-29.5,30.2-59.7,59.9-89.6,89.8-.2.2-.6.4-1.4,1Z"
        fill="#b2153f" stroke-width="0" />
</svg>