<?xml version="1.0" encoding="UTF-8"?>
<svg version="1.1" xmlns="http://www.w3.org/2000/svg" width="512" height="512">
    <path
        d="M0 0 C5.49358398 4.64463418 10.71243068 9.56110412 15.66357422 14.78149414 C19.26576058 13.2771951 21.33940681 11.19013771 23.97607422 8.34399414 C47.27272402 -15.32785793 80.62199388 -29.06347477 113.69702148 -29.45996094 C125.67388233 -29.49058782 136.99379849 -28.97832486 148.66357422 -26.21850586 C149.34613281 -26.06285156 150.02869141 -25.90719727 150.73193359 -25.74682617 C168.39967323 -21.57550781 185.39306472 -13.4176721 199.66357422 -2.21850586 C200.19885742 -1.79988281 200.73414063 -1.38125977 201.28564453 -0.94995117 C227.26663559 19.58218528 243.6114594 47.61714816 250.66357422 79.78149414 C250.91107422 80.90426758 251.15857422 82.02704102 251.41357422 83.18383789 C258.78529767 124.5985898 246.70443896 169.68592084 228.66357422 206.78149414 C228.01243652 208.13065918 228.01243652 208.13065918 227.34814453 209.50708008 C217.36507314 229.98059442 205.02258331 249.09724083 190.66357422 266.78149414 C189.90818359 267.72766602 189.15279297 268.67383789 188.37451172 269.64868164 C184.07497301 274.98247365 179.62186139 280.14321449 174.99951172 285.19946289 C173.76036368 286.56915662 172.52609495 287.94408205 171.33349609 289.35449219 C165.6838884 295.99633444 159.5115425 302.11960918 153.34960938 308.28076172 C151.4266124 310.20594116 149.51176848 312.13898445 147.59716797 314.07250977 C141.32174995 320.37595141 135.02484187 326.39942681 128.02124023 331.89746094 C125.53116686 333.88730211 123.1905406 335.99250673 120.85107422 338.15649414 C115.27841905 343.22655224 109.37984706 347.82869305 103.41748047 352.42602539 C101.7642907 353.70365757 100.11910286 354.99083573 98.47607422 356.28149414 C78.32170176 372.00190466 56.91149896 386.06468769 35.07128906 399.31567383 C32.8497124 400.66817294 30.64103841 402.03970569 28.43310547 403.41430664 C27.19833708 404.16320277 25.96272801 404.9107155 24.72607422 405.65649414 C23.68580078 406.29329102 22.64552734 406.93008789 21.57373047 407.58618164 C17.85827048 409.11226319 16.49447559 409.02158135 12.66357422 407.78149414 C9.21955269 406.06237687 5.94811123 404.09820188 2.66357422 402.09399414 C1.70169189 401.51528564 0.73980957 400.93657715 -0.2512207 400.34033203 C-30.82304649 381.8471237 -59.92965721 361.44041589 -87.1235199 338.21893311 C-89.89609859 335.85199005 -92.67535716 333.49488105 -95.48022461 331.16625977 C-104.33484835 323.76582133 -112.55949971 315.83762826 -120.67993164 307.64379883 C-122.79072824 305.51454475 -124.90961979 303.39360333 -127.02978516 301.27368164 C-128.40200519 299.89655086 -129.77376669 298.51896299 -131.14501953 297.14086914 C-131.76493271 296.51984314 -132.38484589 295.89881714 -133.02354431 295.25897217 C-183.25794237 244.48589136 -219.61090365 176.24543937 -219.58520508 103.84228516 C-219.48795199 93.91757269 -218.52109439 84.45926961 -216.33642578 74.78149414 C-216.18077148 74.08330566 -216.02511719 73.38511719 -215.86474609 72.66577148 C-211.73821161 55.02710165 -203.50600907 38.01430763 -192.33642578 23.78149414 C-191.91780273 23.24621094 -191.49917969 22.71092773 -191.06787109 22.15942383 C-168.42015249 -6.4985863 -136.02914366 -24.70917856 -99.66210938 -29.02001953 C-63.80943343 -32.07987945 -28.08144799 -23.04047398 0 0 Z "
        fill="#b2153f" transform="translate(239.33642578125,66.218505859375)" />
</svg>