<?xml version="1.0" encoding="UTF-8"?>
<svg version="1.1" xmlns="http://www.w3.org/2000/svg" width="512" height="512">
<path d="M0 0 C3.81212509 3.52392708 7.42749677 7.23419499 11 11 C14.53611275 8.04121178 17.92083554 5.12408351 21.0625 1.75 C43.4793619 -20.91705009 76.46561478 -31.58640965 107.6875 -32.3125 C137.68281401 -31.81404415 166.93064484 -22.57720507 190 -3 C190.84304688 -2.29488281 191.68609375 -1.58976562 192.5546875 -0.86328125 C211.76366155 15.80244857 224.93328387 35.93037926 232.375 60.25 C232.61379883 61.02883545 232.85259766 61.8076709 233.09863281 62.61010742 C236.50274261 74.42965942 237.37947263 86.18132452 237.3125 98.4375 C237.30976578 99.4820636 237.30976578 99.4820636 237.30697632 100.54772949 C237.16865321 132.12504848 229.45512144 162.45956439 216 191 C216.79776855 191.1019165 217.59553711 191.20383301 218.41748047 191.30883789 C237.81990477 193.90262862 254.29980485 204.71495269 266.1171875 220.14453125 C278.85188078 239.45793538 280.78378047 262.05144314 276.375 284.4375 C267.55326929 324.94682394 238.81611658 359.68795933 207 385 C205.93563093 385.8870851 204.87320459 386.77650519 203.8125 387.66796875 C196.13930047 394.05244741 188.11581641 399.77246363 179.8125 405.3125 C178.82741455 405.97000244 177.8423291 406.62750488 176.82739258 407.30493164 C173.9028551 409.23279415 170.95566216 411.12027066 168 413 C166.94474121 413.69528809 165.88948242 414.39057617 164.80224609 415.10693359 C163.75762207 415.7664502 162.71299805 416.4259668 161.63671875 417.10546875 C160.69916748 417.7089917 159.76161621 418.31251465 158.7956543 418.93432617 C156 420 156 420 152.9296875 419.34008789 C150.33880777 418.15497632 147.91663848 416.9388095 145.48828125 415.453125 C144.24208008 414.69104736 144.24208008 414.69104736 142.97070312 413.91357422 C142.09349609 413.36459473 141.21628906 412.81561523 140.3125 412.25 C139.39275391 411.67652832 138.47300781 411.10305664 137.52539062 410.51220703 C123.1746915 401.44097176 109.73000387 391.21996203 97 380 C96.17886719 379.28972656 95.35773438 378.57945312 94.51171875 377.84765625 C89.14857695 373.13406027 84.05968743 368.15947902 79 363.125 C78.0102417 362.14225098 78.0102417 362.14225098 77.00048828 361.13964844 C76.38157715 360.51864258 75.76266602 359.89763672 75.125 359.2578125 C74.57070313 358.7023877 74.01640625 358.14696289 73.4453125 357.57470703 C72 356 72 356 70 353 C65.75665468 354.4535216 62.48141524 356.70262463 58.9375 359.375 C50.8127564 365.33424399 42.21395406 370.42149049 33.52929688 375.51416016 C31.02926243 376.98280973 28.53715206 378.46409542 26.046875 379.94921875 C24.51060204 380.86229114 22.97415217 381.77506595 21.4375 382.6875 C20.37535278 383.32075195 20.37535278 383.32075195 19.29174805 383.96679688 C16.55021709 385.58410777 14.02952878 386.99015707 11 388 C8.28461575 386.74509361 5.77163063 385.42722112 3.1875 383.9375 C2.39851318 383.48995361 1.60952637 383.04240723 0.79663086 382.58129883 C-28.73554421 365.61417147 -56.84832688 345.79772006 -83 324 C-83.57975586 323.51934082 -84.15951172 323.03868164 -84.75683594 322.54345703 C-91.73570805 316.75039328 -98.51780773 310.78041436 -105.16796875 304.61328125 C-107.75113869 302.22963892 -110.36819248 299.89209039 -113 297.5625 C-120.87092844 290.49007154 -128.45055214 283.03314592 -135.30859375 274.96875 C-137.23867842 272.72218493 -139.24418139 270.55416096 -141.25 268.375 C-146.34685922 262.72432246 -151.00235876 256.76888863 -155.64453125 250.74511719 C-156.91336513 249.11153927 -158.20587308 247.496427 -159.5 245.8828125 C-170.51939612 232.00261162 -179.75189029 216.6688905 -188 201 C-188.39396973 200.25685547 -188.78793945 199.51371094 -189.19384766 198.74804688 C-200.19560852 177.69513309 -208.17132133 154.45925417 -212 131 C-212.22171875 129.81792969 -212.4434375 128.63585937 -212.671875 127.41796875 C-218.49671234 91.0914494 -212.33798613 54.56437534 -191.97265625 23.71484375 C-187.96740912 18.20267196 -183.55218567 13.06468339 -179 8 C-178.28070313 7.195625 -177.56140625 6.39125 -176.8203125 5.5625 C-130.14436953 -43.75547748 -49.98864881 -42.89047167 0 0 Z " fill="#fff" transform="translate(224,62)"/>
<path d="M0 0 C3.32992874 2.62737152 6.29719366 5.45890762 9.1796875 8.56640625 C10.63722872 10.23710967 10.63722872 10.23710967 12.703125 11.1328125 C12.91453125 10.57207031 13.1259375 10.01132812 13.34375 9.43359375 C19.23453668 -0.53673199 35.01525152 -7.94656742 45.51171875 -10.9609375 C65.14005735 -15.48829268 84.60618779 -13.43156834 102.125 -3.1953125 C117.81713303 6.61860493 128.57105527 22.30840322 133.578125 40.0078125 C139.72094516 70.50121318 129.66684889 101.5118714 113.41943359 127.15917969 C99.90952919 147.45267001 82.74779894 165.9813857 63.703125 181.1328125 C62.63875593 182.0198976 61.57632959 182.90931769 60.515625 183.80078125 C52.84242547 190.18525991 44.81894141 195.90527613 36.515625 201.4453125 C35.53053955 202.10281494 34.5454541 202.76031738 33.53051758 203.43774414 C30.6059801 205.36560665 27.65878716 207.25308316 24.703125 209.1328125 C23.64786621 209.82810059 22.59260742 210.52338867 21.50537109 211.23974609 C19.93843506 212.229021 19.93843506 212.229021 18.33984375 213.23828125 C17.40229248 213.8418042 16.46474121 214.44532715 15.4987793 215.06713867 C12.703125 216.1328125 12.703125 216.1328125 9.6328125 215.47290039 C7.04193277 214.28778882 4.61976348 213.071622 2.19140625 211.5859375 C1.36060547 211.07788574 0.52980469 210.56983398 -0.32617188 210.04638672 C-1.20337891 209.49740723 -2.08058594 208.94842773 -2.984375 208.3828125 C-3.90412109 207.80934082 -4.82386719 207.23586914 -5.77148438 206.64501953 C-20.1221835 197.57378426 -33.56687113 187.35277453 -46.296875 176.1328125 C-47.11800781 175.42253906 -47.93914062 174.71226562 -48.78515625 173.98046875 C-51.33295212 171.7412439 -53.8211554 169.45157005 -56.296875 167.1328125 C-56.84569336 166.62331055 -57.39451172 166.11380859 -57.95996094 165.58886719 C-68.50379206 155.72084925 -77.10812813 145.00662708 -85.296875 133.1328125 C-85.73757324 132.5052002 -86.17827148 131.87758789 -86.63232422 131.23095703 C-96.66544424 116.87218047 -103.79051535 101.0272432 -108.296875 84.1328125 C-108.61527344 83.04484375 -108.93367188 81.956875 -109.26171875 80.8359375 C-114.59699298 60.28160912 -112.15169642 38.90934702 -101.5 20.578125 C-98.37434989 15.51078316 -94.55547768 11.27373359 -90.296875 7.1328125 C-89.28560547 6.09060547 -89.28560547 6.09060547 -88.25390625 5.02734375 C-64.6175885 -17.89944101 -26.38122788 -18.55150516 0 0 Z " fill="#fff" transform="translate(367.296875,265.8671875)" stroke="#333" stroke-width="10"/>
</svg>
