<?xml version="1.0" encoding="UTF-8"?><svg id="Layer_1" xmlns="http://www.w3.org/2000/svg" viewBox="0 0 191.5 200.2"><path d="M0,171.9c25.7-.7,51.3-1.4,77-2.1,0,0,0-.2,0-.3-.3-.1-.6-.3-1-.4-24.1-5.7-40.2-20.7-48.9-43.4-8.8-22.8-4-43.9,10.3-63.1,6.9-9.3,16.3-15.1,27-19,1.5-.6,3-1.1,4.5-1.7,3.2-1.3,4.9-3.7,5.1-7.1.3-7.8-3-14-9-18.9-.5-.4-1-.8-1.5-1.2,0,0,0,0,0-.1,2.7-1.8,7.2-1.1,16.4,2.7.9-3.6-.3-6.9-1.5-10.6,4.3,2,5.9,5.5,7.5,9.4,1.3-6.3,4.6-11.4,9.1-16,5,4.3,8.3,9.6,9.6,16.3,1-2,1.6-3.9,2.7-5.5,1-1.6,2.5-2.9,4-4.6-.5,4-.9,7.5-1.3,11.3,5.8-2.4,11-5.2,17.5-3.2-.8.6-1.2.9-1.6,1.2-5.9,4.1-9,9.9-9.8,17-.5,5.1,1.5,8.1,6.3,9.7,6.9,2.2,13.5,5,19.3,9.4,11.9,8.9,19.1,21.1,23.1,35.2,7.2,25.4-2.5,53.2-23.7,69.6-8,6.2-16.9,10.5-26.7,12.9-.4.1-.8.2-1.2.7.6,0,1.2,0,1.8,0,19.1.4,70.1,2.6,76.4,3.3.2,0-191.5-1-191.5-1.3ZM95.1,148.9c.4-.9.7-1.5,1-2.2.3-.7.6-1.4.9-2,3.5-7,8.8-12.3,15-16.8,5.9-4.3,11.8-8.5,17.1-13.5,8.7-8.1,12.5-18.2,9.6-30-1.8-7.6-5.9-13.6-13.9-15.7-7.6-2-14.7-.8-21.2,3.7-3.7,2.6-6.7,5.8-8.7,9.8-.2,0-.2,0-.3-.1-.3-.4-.6-.9-.8-1.3-4-6.2-9.3-10.6-16.7-12.2-10.8-2.3-20.3,2.5-24.3,12.4-1.7,4.3-2.2,8.8-1.7,13.4,1,8.4,5.1,15.2,11.2,20.7,5.2,4.7,10.8,8.9,16.5,13.1,5.7,4.3,10.5,9.3,14,15.6.9,1.6,1.6,3.3,2.5,5.2Z" fill="#b2153f" stroke-width="0"/><path d="M95.4,134.7c1.2-2.6,2.1-5.5,3.7-7.9,3-4.3,6.5-8.2,9.8-12.3,3-3.8,6.1-7.5,8.9-11.4,2.7-3.7,4.5-7.9,5.1-12.5.6-4.3-.1-8.4-2.5-12.1-2.8-4.4-6.8-6.1-12-5.4-.4,0-.8.1-1.4.2,8.4-4.9,20,.4,21.8,9.9,1.6,8.4-.9,15.8-6.1,22.3-2.8,3.5-6.3,6.4-9.5,9.5-1.2,1.2-2.6,2.1-3.9,3.2-5.7,4.6-11,9.6-13.4,17-.2-.1-.4-.3-.7-.4Z" fill="#b2153f" stroke-width="0"/><path d="M15.6,184.3v8.9c0,4.5-2.5,7-7.2,7h-2.5c-2.4,0-4.4-.6-5.7-2l2.6-3.2c.8.8,1.7,1.2,3,1.2h2.5c1.9,0,3-1.1,3-3v-5h-7.3v-3.9h11.5Z" fill="#b2153f" stroke-width="0"/><path d="M33.5,184.3v3.8h-10.8v2.2h9.5v3.8h-9.5v2.2h10.8v3.8h-15v-15.7h15Z" fill="#b2153f" stroke-width="0"/><path d="M49,200l-2.9-4.8h-5.5v4.8h-4.2v-15.7h10.2c4.6,0,6.8,2.2,6.8,5.5h0c0,2.3-1,4-3.1,4.9l3.5,5.3h-4.7ZM40.6,188.1v3.6h6c1.7,0,2.5-.4,2.5-1.8h0c0-1.3-.9-1.8-2.5-1.8h-6Z" fill="#b2153f" stroke-width="0"/><path d="M66.3,192.2l6.3-7.9h4v15.7h-4.2v-9.2l-5,6.4h-2.2l-5-6.4v9.2h-4.2v-15.7h4l6.3,7.9Z" fill="#b2153f" stroke-width="0"/><path d="M96.7,184.3c5.3,0,8.3,3,8.3,7.9h0c0,4.8-3,7.9-8.3,7.9h-10v-15.7h10ZM91,196.1h5.7c2.8,0,4.1-1.5,4.1-3.9h0c0-2.5-1.3-4-4.1-4h-5.7v7.9Z" fill="#b2153f" stroke-width="0"/><path d="M126.1,200h-4.6l-1.4-2.9h-8.9l-1.4,2.9h-4.6l8.2-15.7h4.4l8.2,15.7ZM115.7,188.3l-2.7,5.3h5.4l-2.7-5.3Z" fill="#b2153f" stroke-width="0"/><path d="M141.5,184.3v4h-6.2v11.7h-4.3v-11.7h-6.2v-4h16.6Z" fill="#b2153f" stroke-width="0"/><path d="M143.7,200v-15.7h4.3v15.7h-4.3Z" fill="#b2153f" stroke-width="0"/><path d="M165.1,184.3h4.2v15.7h-3.8l-9.9-9.2v9.2h-4.2v-15.7h3.8l9.9,9.3v-9.3Z" fill="#b2153f" stroke-width="0"/><path d="M187.6,189.2c-1-.9-2.2-1.2-3.8-1.2h-3.5c-2.8,0-4.4,1.7-4.4,4.2h0c0,2.5,1.5,4.2,4.3,4.2h3.3c1.6,0,2.9-.4,3.4-1.2v-.3h-4.2v-3.4h7.8v8.6h-2.5l-.2-1.5c-1,1.2-2.4,1.7-4.5,1.7h-3.3c-5.1,0-8.2-3.2-8.2-8.1h0c0-4.8,3.1-8.1,8.6-8.1h3.5c2.7,0,4.7.6,6.2,2l-2.4,3.1Z" fill="#b2153f" stroke-width="0"/></svg>