<?xml version="1.0" encoding="UTF-8"?>
<svg id="Layer_1" xmlns="http://www.w3.org/2000/svg" viewBox="0 0 191.5 173.2">
    <path
        d="M0,171.9c25.7-.7,51.3-1.4,77-2.1,0,0,0-.2,0-.3-.3-.1-.6-.3-1-.4-24.1-5.7-40.2-20.7-48.9-43.4-8.8-22.8-4-43.9,10.3-63.1,6.9-9.3,16.3-15.1,27-19,1.5-.6,3-1.1,4.5-1.7,3.2-1.3,4.9-3.7,5.1-7.1.3-7.8-3-14-9-18.9-.5-.4-1-.8-1.5-1.2,0,0,0,0,0-.1,2.7-1.8,7.2-1.1,16.4,2.7.9-3.6-.3-6.9-1.5-10.6,4.3,2,5.9,5.5,7.5,9.4,1.3-6.3,4.6-11.4,9.1-16,5,4.3,8.3,9.6,9.6,16.3,1-2,1.6-3.9,2.7-5.5,1-1.6,2.5-2.9,4-4.6-.5,4-.9,7.5-1.3,11.3,5.8-2.4,11-5.2,17.5-3.2-.8.6-1.2.9-1.6,1.2-5.9,4.1-9,9.9-9.8,17-.5,5.1,1.5,8.1,6.3,9.7,6.9,2.2,13.5,5,19.3,9.4,11.9,8.9,19.1,21.1,23.1,35.2,7.2,25.4-2.5,53.2-23.7,69.6-8,6.2-16.9,10.5-26.7,12.9-.4.1-.8.2-1.2.7.6,0,1.2,0,1.8,0,19.1.4,70.1,2.6,76.4,3.3.2,0-191.5-1-191.5-1.3ZM95.1,148.9c.4-.9.7-1.5,1-2.2.3-.7.6-1.4.9-2,3.5-7,8.8-12.3,15-16.8,5.9-4.3,11.8-8.5,17.1-13.5,8.7-8.1,12.5-18.2,9.6-30-1.8-7.6-5.9-13.6-13.9-15.7-7.6-2-14.7-.8-21.2,3.7-3.7,2.6-6.7,5.8-8.7,9.8-.2,0-.2,0-.3-.1-.3-.4-.6-.9-.8-1.3-4-6.2-9.3-10.6-16.7-12.2-10.8-2.3-20.3,2.5-24.3,12.4-1.7,4.3-2.2,8.8-1.7,13.4,1,8.4,5.1,15.2,11.2,20.7,5.2,4.7,10.8,8.9,16.5,13.1,5.7,4.3,10.5,9.3,14,15.6.9,1.6,1.6,3.3,2.5,5.2Z"
        fill="#b2153f" stroke-width="0" />
    <path
        d="M95.4,134.7c1.2-2.6,2.1-5.5,3.7-7.9,3-4.3,6.5-8.2,9.8-12.3,3-3.8,6.1-7.5,8.9-11.4,2.7-3.7,4.5-7.9,5.1-12.5.6-4.3-.1-8.4-2.5-12.1-2.8-4.4-6.8-6.1-12-5.4-.4,0-.8.1-1.4.2,8.4-4.9,20,.4,21.8,9.9,1.6,8.4-.9,15.8-6.1,22.3-2.8,3.5-6.3,6.4-9.5,9.5-1.2,1.2-2.6,2.1-3.9,3.2-5.7,4.6-11,9.6-13.4,17-.2-.1-.4-.3-.7-.4Z"
        fill="#b2153f" stroke-width="0" />
</svg>