<?xml version="1.0" encoding="UTF-8"?>
<svg id="Layer_1" xmlns="http://www.w3.org/2000/svg" xmlns:xlink="http://www.w3.org/1999/xlink"
    viewBox="0 0 1246.3 1126.1">
    <defs>
        <linearGradient id="linear-gradient" x1="30.5" y1="221.9" x2="1131.3" y2="714.7" gradientUnits="userSpaceOnUse">
            <stop offset="0" stop-color="#2d295c" />
            <stop offset=".5" stop-color="#851c60" />
            <stop offset="1" stop-color="#e74617" />
        </linearGradient>
        <linearGradient id="linear-gradient-2" x1="620.4" y1="624.4" x2="825.8" y2="624.4"
            gradientUnits="userSpaceOnUse">
            <stop offset="0" stop-color="#900230" />
            <stop offset="1" stop-color="#d30d57" />
        </linearGradient>
        <linearGradient id="linear-gradient-3" x1="620.4" y1="630.1" x2="825.8" y2="630.1"
            xlink:href="#linear-gradient-2" />
        <linearGradient id="linear-gradient-4" x1="620.4" y1="626" x2="825.8" y2="626"
            xlink:href="#linear-gradient-2" />
        <linearGradient id="linear-gradient-5" x1="620.4" y1="624.2" x2="825.8" y2="624.2"
            xlink:href="#linear-gradient-2" />
        <linearGradient id="linear-gradient-6" x1="620.4" y1="629.7" x2="825.8" y2="629.7"
            xlink:href="#linear-gradient-2" />
        <linearGradient id="linear-gradient-7" x1="620.4" y1="635.5" x2="825.8" y2="635.5"
            xlink:href="#linear-gradient-2" />
        <linearGradient id="linear-gradient-8" x1="620.4" y1="621.7" x2="825.8" y2="621.7"
            xlink:href="#linear-gradient-2" />
    </defs>
    <path
        d="M1227.9,256.6C1167.6,57.9,956.2-48.8,763.4,21.8c-62.1,22.8-114.4,58.6-138.9,124.4-.1.4-1,.5-1.6.8-.6-.8-1.5-1.5-1.8-2.4-12.2-36.7-36.5-64-67.3-86C500.1,20.3,439.6,2.4,374.2.4c-100-3-187.5,28.6-259.4,98.5C-2.9,213.4-32.9,390.1,37.7,542.1c31.8,68.5,79.3,125.6,130.4,180,63.9,68,137.7,124.2,213.2,178.3,68.6,49.2,134.8,101.4,191.7,164.3,17.7,19.5,33.8,40.5,50.8,61.1,0,0,0,.1.1.2,1.1-1.3,2.5-2.7,3.7-4.3,30.9-43,66.7-81.5,105.8-117.1,56.7-51.6,118.9-96.1,180.8-141.1,95.2-69.2,181.2-147.9,249.4-244.6,78.1-110.6,104-231.3,64.2-362.3ZM910.4,644.4c-39.1,53.8-88.9,97.2-138.5,140.7-49.6,43.5-100,86.1-143.6,135.9-1.2,1.4-2.8,2.5-4.4,3.8-.1,0-.2.2-.3.3-15.7-16.3-30.4-33.4-46.9-48.4-47.2-43.1-95.4-85.1-142.8-128-54.3-49.1-103.7-102.2-134.1-170.1-26.9-59.9-37.4-122.1-22-186.7,19.3-81.4,92-140.2,175.4-144.7,62-3.4,116.3,15.7,164.8,53.5,1.5,1.2,3.1,2.3,3.4,2.5,25.7-14,48.9-30.1,74.5-40.1,65.8-25.6,131.2-24.5,192.5,13.9,48.8,30.6,76.7,76.4,85.5,132.9,13.5,87.2-12.3,164.4-63.2,234.5Z"
        fill="url(#linear-gradient)" stroke-width="0" />
    <path
        d="M479.2,555.9c0,3.9-.8,7.6-2.4,11-1.7,3.5-4,6.6-6.9,9.2-2.9,2.6-6.4,4.8-10.3,6.3-3.9,1.5-8.2,2.3-12.7,2.3h-4.1v24.1h4.1c7.7,0,15.1-1.4,21.9-4.2,6.8-2.7,12.8-6.5,18-11.3,5.1-4.7,9.3-10.4,12.2-16.8,3-6.5,4.5-13.4,4.5-20.7v-158.4h-24.3v158.4Z"
        fill="#2b265b" stroke-width="0" />
    <path
        d="M599.3,486.7c-4.6-4.6-10.2-8.4-16.4-11.1-6.3-2.7-13.1-4.1-20.3-4.1s-14,1.4-20.3,4.1c-6.3,2.7-11.8,6.4-16.5,11-4.7,4.6-8.5,10.2-11.2,16.5-2.7,6.4-4.1,13.2-4.1,20.3s1.4,13.9,4.1,20.2c2.7,6.2,6.4,11.7,11.1,16.4,4.7,4.7,10.2,8.4,16.5,11.2,6.3,2.7,13.1,4.1,20.3,4.1s11.4-1.3,16.8-4c5.2-2.6,10-6,14.4-10.2l3-2.9-16.8-16.8-2.9,2.8c-2.4,2.3-4.9,4.1-7.5,5.5-2.4,1.2-4.6,1.8-6.9,1.8-3.3,0-6.5-.5-9.4-1.6-2.9-1.1-5.6-2.6-7.9-4.5-2.4-1.9-4.4-4.2-6.2-6.8-.7-1.1-1.4-2.2-1.9-3.4h76.4l.4-3.7c.3-2.5.4-4.3.4-5.4v-2.8c0-7.1-1.4-14-4.1-20.3-2.7-6.3-6.4-11.9-11.1-16.5ZM587.8,511.6h-50.4c.5-1.1,1.2-2.3,1.9-3.3,1.7-2.6,3.8-4.9,6.1-6.8,2.3-1.9,5-3.3,7.9-4.4,5.8-2.1,12.9-2.1,18.7,0,2.9,1.1,5.6,2.6,7.9,4.4,2.3,1.9,4.3,4.1,6,6.7.7,1.1,1.3,2.2,1.9,3.4Z"
        fill="#2b265b" stroke-width="0" />
    <path
        d="M658,475.2c-6.6,2.7-12.5,6.4-17.5,11-5,4.6-9.1,10.2-12,16.5-2.9,6.4-4.4,13.3-4.4,20.4v50h24v-50c0-3.8.8-7.4,2.4-10.8,1.6-3.4,3.8-6.4,6.7-9,2.9-2.6,6.2-4.6,10-6.1,3.8-1.5,7.9-2.2,12.3-2.2h4.1v-24h-4.1c-7.6,0-14.8,1.4-21.5,4.1Z"
        fill="#2b265b" stroke-width="0" />
    <path
        d="M826.9,496.1c-2.2-4.9-5.1-9.3-8.8-12.9-3.6-3.6-8-6.6-12.9-8.8-5-2.2-10.3-3.3-15.9-3.3s-12.8,1.5-18.2,4.3c-4,2.1-7.6,4.7-10.7,7.9-3.1-3.2-6.7-5.9-10.7-7.9-5.5-2.9-11.6-4.3-18.1-4.3s-10.9,1.1-15.9,3.3c-4.9,2.2-9.3,5.1-12.9,8.8-3.7,3.7-6.6,8-8.8,12.9-2.2,5-3.3,10.3-3.3,15.9v61.2h23.8v-61.2c0-2.4.4-4.5,1.3-6.5.9-2.1,2.1-3.8,3.6-5.4,1.5-1.5,3.3-2.7,5.4-3.6,2.1-.9,4.3-1.3,6.7-1.3s4.5.4,6.5,1.3c2.1.9,3.9,2.1,5.5,3.7,1.6,1.5,2.8,3.3,3.7,5.3.9,2,1.3,4.1,1.3,6.5v61.2h23.8v-61.2c0-2.4.4-4.5,1.3-6.5.9-2.1,2.1-3.8,3.6-5.4,1.5-1.5,3.3-2.7,5.4-3.6,2.1-.9,4.3-1.3,6.7-1.3s4.5.4,6.5,1.3c2,.9,3.8,2.1,5.4,3.6,1.5,1.5,2.8,3.3,3.7,5.4.9,2,1.3,4.1,1.3,6.5v61.2h24v-61.2c0-5.6-1.1-10.9-3.3-15.9Z"
        fill="#2b265b" stroke-width="0" />
    <path
        d="M649.7,611.8c3.2,3.5,4.8,7.7,4.8,12.6s-1.6,9.1-4.8,12.6c-1.5,1.7-3.2,3-5.2,4-2.1,1-4.2,1.4-6.5,1.4h-14.8v-35.9h14.8c2.3,0,4.4.5,6.5,1.4,2,1,3.8,2.3,5.2,4ZM638,636.3c2.8,0,5.3-1.2,7.3-3.5,2-2.3,3.1-5.1,3.1-8.4s-1-6.1-3.1-8.4c-2-2.3-4.5-3.5-7.3-3.5h-8.8v23.8h8.8Z"
        fill="url(#linear-gradient-2)" stroke-width="0" />
    <path
        d="M675.8,617.9h5.5v24.4h-5.5v-3.7c-2.3,3-5.2,4.5-8.8,4.5s-5.9-1.3-8.2-3.8c-2.3-2.5-3.4-5.6-3.4-9.2s1.1-6.7,3.4-9.2c2.3-2.5,5-3.8,8.2-3.8s6.5,1.5,8.8,4.5v-3.7ZM663.1,635.4c1.5,1.4,3.2,2.2,5.3,2.2s3.8-.7,5.3-2.2c1.5-1.4,2.2-3.2,2.2-5.3s-.7-3.8-2.2-5.3c-1.5-1.4-3.2-2.2-5.3-2.2s-3.8.7-5.3,2.2c-1.5,1.4-2.2,3.2-2.2,5.3s.7,3.8,2.2,5.3Z"
        fill="url(#linear-gradient-3)" stroke-width="0" />
    <path d="M693.6,617.9h5.8v5.5h-5.8v18.8h-5.5v-18.8h-5.3v-5.5h5.3v-5.5l5.5-2.8v8.3Z" fill="url(#linear-gradient-4)"
        stroke-width="0" />
    <path
        d="M707.9,609.3c0,.9-.3,1.7-1,2.3s-1.4,1-2.3,1-1.7-.3-2.3-1c-.7-.7-1-1.4-1-2.3s.3-1.7,1-2.3c.6-.6,1.4-1,2.3-1s1.6.3,2.3,1c.7.7,1,1.4,1,2.3ZM707.4,617.9v24.4h-5.5v-24.4h5.5Z"
        fill="url(#linear-gradient-5)" stroke-width="0" />
    <path
        d="M734,628.5v13.8h-5.5v-13.8c0-1.6-.6-3-1.7-4.1-1.1-1.1-2.5-1.7-4.1-1.7s-3,.6-4.1,1.7c-1.1,1.1-1.7,2.5-1.7,4.1v13.8h-5.5v-24.4h5.5v2.7c1.9-2.3,4.3-3.5,7.2-3.5s5.1,1.1,7.1,3.3c1.9,2.2,2.9,4.9,2.9,8Z"
        fill="url(#linear-gradient-6)" stroke-width="0" />
    <path
        d="M756.3,617.9h5.5v23c0,3.6-1.3,6.6-3.9,9.2-2.5,2.5-5.6,3.8-9.1,3.8v-5.5c2.1,0,3.8-.7,5.3-2.2,1.4-1.4,2.2-3.2,2.2-5.3v-2.4c-2.3,3-5.2,4.5-8.8,4.5s-5.9-1.3-8.2-3.8c-2.3-2.5-3.4-5.6-3.4-9.2s1.1-6.7,3.4-9.2c2.3-2.5,5-3.8,8.2-3.8s6.5,1.5,8.8,4.5v-3.7ZM743.6,635.4c1.5,1.4,3.2,2.2,5.3,2.2s3.8-.7,5.3-2.2c1.5-1.4,2.2-3.2,2.2-5.3s-.7-3.8-2.2-5.3c-1.5-1.4-3.2-2.2-5.3-2.2s-3.8.7-5.3,2.2c-1.5,1.4-2.2,3.2-2.2,5.3s.7,3.8,2.2,5.3Z"
        fill="url(#linear-gradient-7)" stroke-width="0" />
    <path
        d="M807.6,598.6c-12.7,0-23,10.3-23,23s10.3,23,23,23,23-10.3,23-23c0-12.7-10.3-23-23-23ZM807.6,627.4c1.5,0,3-.6,4.1-1.7,1.1-1.1,2.9-1.1,4.1,0,1.1,1.1,1.1,2.9,0,4.1-2.2,2.2-5.1,3.4-8.1,3.4-6.4,0-11.5-5.2-11.5-11.5s5.2-11.5,11.5-11.5c3.1,0,6,1.2,8.1,3.4,1.1,1.1,1.1,3,0,4.1-1.1,1.1-3,1.1-4.1,0h0c-1.1-1.1-2.5-1.7-4.1-1.7-3.2,0-5.8,2.6-5.8,5.8s2.6,5.8,5.8,5.8Z"
        fill="url(#linear-gradient-8)" stroke-width="0" />
</svg>