<?xml version="1.0" encoding="UTF-8"?><svg id="Layer_1" xmlns="http://www.w3.org/2000/svg" xmlns:xlink="http://www.w3.org/1999/xlink" viewBox="0 0 1434 1314"><defs><linearGradient id="linear-gradient" x1="124.2" y1="316.4" x2="1225.1" y2="809.2" gradientUnits="userSpaceOnUse"><stop offset="0" stop-color="#2d295c"/><stop offset=".5" stop-color="#851c60"/><stop offset="1" stop-color="#e74617"/></linearGradient><filter id="drop-shadow-1" filterUnits="userSpaceOnUse"><feOffset dx="0" dy="0"/><feGaussianBlur result="blur" stdDeviation="31.2"/><feFlood flood-color="#000" flood-opacity=".7"/><feComposite in2="blur" operator="in"/><feComposite in="SourceGraphic"/></filter></defs><path d="M1257.4,713.4c-68.2,96.6-154.2,175.4-249.4,244.6-61.9,45-124.1,89.5-180.8,141.1-39.1,35.6-74.9,74.1-105.8,117.1-1.1,1.6-2.6,3-3.7,4.3,0,0,0-.1-.1-.2-17-20.6-33.1-41.6-50.8-61.1-56.9-62.9-123.1-115.2-191.7-164.3-75.6-54.2-149.3-110.3-213.2-178.3-51.1-54.4-98.5-111.5-130.4-180-70.6-152-40.6-328.7,77.1-443.2,71.9-69.9,159.3-101.5,259.4-98.5,65.4,2,125.8,19.9,179.4,58.2,30.8,22,55.1,49.3,67.4,86,.3.9,1.1,1.6,1.8,2.4.7-.3,1.5-.4,1.6-.8,24.6-65.7,76.8-101.6,138.9-124.4,192.8-70.6,404.3,36.1,464.5,234.8,39.7,131,13.8,251.7-64.2,362.3Z" fill="url(#linear-gradient)" filter="url(#drop-shadow-1)" stroke-width="0"/></svg>