<?xml version="1.0" encoding="UTF-8"?><svg id="Layer_1" xmlns="http://www.w3.org/2000/svg" viewBox="0 0 103.6 16.1"><path d="M10,.2c5.3,0,8.3,3,8.3,7.9h0c0,4.8-3,7.9-8.3,7.9H0V.2h10ZM4.3,12h5.7c2.8,0,4.1-1.5,4.1-3.9h0c0-2.5-1.3-4-4.1-4h-5.7v7.9Z" fill="#b2153f" stroke-width="0"/><path d="M39.4,15.9h-4.6l-1.4-2.9h-8.9l-1.4,2.9h-4.6L26.8.2h4.4l8.2,15.7ZM29,4.2l-2.7,5.3h5.4l-2.7-5.3Z" fill="#b2153f" stroke-width="0"/><path d="M54.7.2v4h-6.2v11.7h-4.3V4.2h-6.2V.2h16.6Z" fill="#b2153f" stroke-width="0"/><path d="M57,15.9V.2h4.3v15.7h-4.3Z" fill="#b2153f" stroke-width="0"/><path d="M78.3.2h4.2v15.7h-3.8l-9.9-9.2v9.2h-4.2V.2h3.8l9.9,9.3V.2Z" fill="#b2153f" stroke-width="0"/><path d="M100.8,5.1c-1-.9-2.2-1.2-3.8-1.2h-3.5c-2.8,0-4.4,1.7-4.4,4.2h0c0,2.5,1.5,4.2,4.3,4.2h3.3c1.6,0,2.9-.4,3.4-1.2v-.3h-4.2v-3.4h7.8v8.6h-2.5l-.2-1.5c-1,1.2-2.4,1.7-4.5,1.7h-3.3c-5.1,0-8.2-3.2-8.2-8.1h0c0-4.8,3.1-8.1,8.6-8.1h3.5c2.7,0,4.7.6,6.2,2l-2.4,3.1Z" fill="#b2153f" stroke-width="0"/></svg>