<?xml version="1.0" encoding="UTF-8"?><svg id="Layer_1" xmlns="http://www.w3.org/2000/svg" viewBox="0 0 76.4 15.9"><path d="M15.3,0v8.9c0,4.5-2.5,7-7.2,7h-2.5c-2.4,0-4.4-.6-5.7-2l2.6-3.2c.8.8,1.7,1.2,3,1.2h2.5c1.9,0,3-1.1,3-3V3.9H3.8V0h11.5Z" fill="#b2153f" stroke-width="0"/><path d="M33.3,0v3.8h-10.8v2.2h9.5v3.8h-9.5v2.2h10.8v3.8h-15V0h15Z" fill="#b2153f" stroke-width="0"/><path d="M48.8,15.7l-2.9-4.8h-5.5v4.8h-4.2V0h10.2c4.6,0,6.8,2.2,6.8,5.5h0c0,2.3-1,4-3.1,4.9l3.5,5.3h-4.7ZM40.3,3.8v3.6h6c1.7,0,2.5-.4,2.5-1.8h0c0-1.3-.9-1.8-2.5-1.8h-6Z" fill="#b2153f" stroke-width="0"/><path d="M66.1,7.9l6.3-7.9h4v15.7h-4.2V6.5l-5,6.4h-2.2l-5-6.4v9.2h-4.2V0h4l6.3,7.9Z" fill="#b2153f" stroke-width="0"/></svg>